# xmcd
#
# Track frame offsets: 
#        150
#        8765
#        31672
#        56187
#        59680
#        82080
#        108000
#        128627
#        132650
#        157077
#        178710
#        203562
#        207880
#        217492
#        235225
#        255855
#        273922
#        286410
#
# Disc length: 4440 seconds
#
# Revision: 15
# Processed by: cddbd v1.5.2PL0 Copyright (c) Steve Scherf et al.
# Submitted via: ExactAudioCopy v0.99pb5
#
DISCID=0a115612
DTITLE=Howard Carpendale - Howard Carpendale
DYEAR=1970
DGENRE=Schlager
TTITLE0=Lebenslänglich
TTITLE1=Sonntag
TTITLE2=Und dann tanz' ich mit dir allein
TTITLE3=Geh doch nicht am Glück vorüber
TTITLE4=Julie
TTITLE5=Immer nur an eine denken
TTITLE6=Wir sagen ja zu der Liebe
TTITLE7=Mädchen, das ich liebe
TTITLE8=London-Lady
TTITLE9=Engel dürfen nicht weinen
TTITLE10=Bunt, so bunt
TTITLE11=Rettungslos
TTITLE12=Hucklebuck
TTITLE13=Warum bist Du so traurig
TTITLE14=Jamaica Baby
TTITLE15=Wenn uns're Liebe ewig so bliebe
TTITLE16=Schuld war nur der Sonnenschein
TTITLE17=DATA
EXTD=YEAR: 2002
EXTT0=
EXTT1=
EXTT2=
EXTT3=
EXTT4=
EXTT5=
EXTT6=
EXTT7=
EXTT8=
EXTT9=
EXTT10=
EXTT11=
EXTT12=
EXTT13=
EXTT14=
EXTT15=
EXTT16=
EXTT17=
PLAYORDER=
